<svg width="20" height="20" viewBox="0 0 20 20" fill="none" xmlns="http://www.w3.org/2000/svg">
<g id=".DISCONTINUED / brand / behance">
<path id="Vector" d="M14.7241 15.2234C14.1834 15.2301 13.6462 15.1348 13.1408 14.9425C12.688 14.7665 12.2788 14.4941 11.9416 14.1442C11.6095 13.7867 11.3529 13.3658 11.1875 12.9067C11.0057 12.3989 10.9157 11.8627 10.9216 11.3234C10.9178 10.7933 11.0104 10.267 11.195 9.77005C11.3671 9.30669 11.6319 8.88333 11.9733 8.52588C12.3157 8.17288 12.7247 7.89133 13.1766 7.69755C13.6662 7.49045 14.1935 7.38744 14.725 7.39505C15.2962 7.38284 15.8619 7.50862 16.3741 7.76171C16.8313 7.99623 17.2279 8.3337 17.5325 8.74755C17.8397 9.17025 18.0614 9.64895 18.185 10.1567C18.3198 10.6965 18.3679 11.2543 18.3275 11.8092H12.9683C12.947 12.3363 13.1276 12.8516 13.4733 13.25C13.8364 13.5686 14.3113 13.7299 14.7933 13.6984C15.1719 13.7072 15.5439 13.5987 15.8583 13.3875C16.1079 13.2352 16.2994 13.0037 16.4025 12.73H18.1983C17.9948 13.504 17.5265 14.1821 16.875 14.6467C16.23 15.0456 15.4821 15.2461 14.7241 15.2234ZM14.6666 8.93671C14.3866 8.9262 14.1082 8.98337 13.855 9.10338C13.6569 9.20323 13.4812 9.34213 13.3383 9.51171C13.2126 9.66577 13.1196 9.84384 13.065 10.035C13.0168 10.1944 12.9858 10.3583 12.9725 10.5242H16.2908C16.2669 10.0921 16.1021 9.67967 15.8216 9.35005C15.5112 9.05702 15.0925 8.90715 14.6666 8.93671ZM6.64163 15.03H1.66663V4.77588H6.49996C6.94771 4.77196 7.39462 4.81525 7.83329 4.90505C8.20485 4.97758 8.55886 5.12134 8.87579 5.32838C9.16203 5.52707 9.39176 5.79671 9.54246 6.11088C9.70884 6.48933 9.78856 6.90017 9.77579 7.31338C9.79385 7.77055 9.67267 8.22242 9.42829 8.60921C9.16088 8.97845 8.79947 9.26936 8.38163 9.45171C8.9494 9.59361 9.44843 9.9323 9.78996 10.4075C10.1072 10.8966 10.2677 11.4707 10.25 12.0534C10.262 12.5194 10.1596 12.9812 9.95163 13.3984C9.7597 13.7684 9.48125 14.0866 9.13996 14.3259C8.78614 14.5721 8.39097 14.7527 7.97329 14.8592C7.53727 14.9737 7.08827 15.0314 6.63746 15.0309L6.64163 15.03ZM3.92496 10.4609V13.2859H6.33329C6.54614 13.2882 6.75857 13.2667 6.96663 13.2217C7.1571 13.1849 7.33838 13.1107 7.49996 13.0034C7.65556 12.9011 7.78191 12.7601 7.86663 12.5942C7.96488 12.3862 8.0112 12.1574 8.00163 11.9275C8.04202 11.501 7.87675 11.0807 7.55663 10.7959C7.21124 10.5581 6.79705 10.4409 6.37829 10.4625L3.92496 10.4609ZM3.92496 6.52338V8.91921H6.20996C6.56343 8.93313 6.9119 8.83227 7.20329 8.63171C7.47798 8.40359 7.62262 8.05477 7.58996 7.69921C7.597 7.49511 7.55349 7.29244 7.46329 7.10921C7.38183 6.9611 7.26174 6.83784 7.11579 6.75255C6.96211 6.66141 6.79238 6.60059 6.61579 6.57338C6.42349 6.53733 6.2281 6.5203 6.03246 6.52255L3.92496 6.52338ZM16.7091 6.47671H12.5508V5.46421H16.7091V6.47588V6.47671Z" fill="#8A8A9A"/>
</g>
</svg>
