<svg width="20" height="20" viewBox="0 0 20 20" fill="none" xmlns="http://www.w3.org/2000/svg">
<g id=".DISCONTINUED / brand / dribbble">
<path id="Vector" d="M9.99996 18.3333C5.39759 18.3333 1.66663 14.6023 1.66663 9.99996C1.66663 5.39759 5.39759 1.66663 9.99996 1.66663C14.6023 1.66663 18.3333 5.39759 18.3333 9.99996C18.3282 14.6002 14.6002 18.3282 9.99996 18.3333ZM5.93329 15.4541L5.92913 15.4625C7.83167 16.8877 10.341 17.2142 12.545 16.3233C12.2291 14.6244 11.7608 12.9574 11.1458 11.3425C9.73324 11.835 8.4418 12.6227 7.35746 13.6533C6.82306 14.1593 6.36044 14.736 5.98246 15.3675L5.97663 15.3766V15.3683L5.96163 15.3975L5.95163 15.4141L5.94579 15.425L5.93163 15.455L5.93329 15.4541ZM13.9825 10.8708C13.5722 10.8714 13.1624 10.8992 12.7558 10.9541C13.2868 12.4379 13.7046 13.9597 14.0058 15.5066C15.422 14.4858 16.3845 12.9531 16.6891 11.2341C15.8075 10.9909 14.897 10.8678 13.9825 10.8683V10.8708ZM3.18079 9.96246V10.0091C3.18231 11.6146 3.7504 13.1681 4.78496 14.3958C6.1252 12.3254 8.10769 10.7519 10.4283 9.91663L10.5275 9.88829C10.38 9.56246 10.2416 9.27163 10.1033 8.99996C7.8799 9.62337 5.58321 9.94707 3.27413 9.96246H3.18079ZM13.7216 9.45746C14.7557 9.46127 15.7874 9.55552 16.805 9.73913C16.7519 8.32947 16.2589 6.97179 15.395 5.85663C14.3868 6.98407 13.132 7.86357 11.7283 8.42663L11.7525 8.41663L11.7266 8.42746C11.8758 8.73829 12.0066 9.02913 12.1158 9.28829C12.1416 9.34996 12.1633 9.40329 12.1833 9.45496L12.2175 9.53829C12.7169 9.48287 13.2191 9.45589 13.7216 9.45746ZM6.98079 3.89746C5.16855 4.79194 3.84678 6.44461 3.37246 8.40913C5.31444 8.37912 7.2471 8.13373 9.13496 7.67746H9.14579H9.15829L9.16663 7.66663L9.21163 7.65579H9.21663L9.24996 7.64913H9.25746H9.26329L9.28079 7.64413L9.31413 7.63579L9.33329 7.62746L9.35163 7.62246H9.35996H9.36829C8.25746 5.66663 7.10746 4.07246 6.97996 3.89746H6.98079ZM9.99996 3.1991C9.54379 3.19798 9.08858 3.24124 8.64079 3.32829C9.5138 4.53795 10.3149 5.7979 11.04 7.10163C12.3384 6.63917 13.4964 5.85126 14.4033 4.81329C13.1722 3.77212 11.6123 3.2003 9.99996 3.1991Z" fill="#8A8A9A"/>
</g>
</svg>
