<svg width="20" height="20" viewBox="0 0 20 20" fill="none" xmlns="http://www.w3.org/2000/svg">
<g id=".DISCONTINUED / brand / facebook">
<path id="Vector" d="M1.66833 10.0017C1.6693 14.1012 4.65034 17.5918 8.69917 18.2342V12.4101H6.585V10.0017H8.70167V8.16841C8.60704 7.29969 8.90377 6.4339 9.51137 5.80585C10.119 5.1778 10.9745 4.85259 11.8458 4.91841C12.4713 4.92851 13.0952 4.98422 13.7125 5.08508V7.13424H12.6592C12.2965 7.08675 11.932 7.20651 11.6681 7.4598C11.4043 7.71309 11.2698 8.07248 11.3025 8.43674V10.0017H13.6117L13.2425 12.4109H11.3025V18.2342C15.6812 17.5422 18.7517 13.5432 18.2896 9.13431C17.8274 4.72539 13.9944 1.45002 9.56736 1.68106C5.1403 1.9121 1.66904 5.56867 1.66833 10.0017Z" fill="#8A8A9A"/>
</g>
</svg>
