<svg width="55" height="32" viewBox="0 0 55 32" fill="none" xmlns="http://www.w3.org/2000/svg">
<g clip-path="url(#clip0_1_533)">
<mask id="mask0_1_533" style="mask-type:alpha" maskUnits="userSpaceOnUse" x="27" y="9" width="11" height="14">
<path fill-rule="evenodd" clip-rule="evenodd" d="M27.0391 9H37.3068V23H27.0391V9Z" fill="white"/>
</mask>
<g mask="url(#mask0_1_533)">
<path fill-rule="evenodd" clip-rule="evenodd" d="M31.2761 13.4849V9H31.2366C31.2233 9.00501 31.2101 9.0107 31.1969 9.01639C31.1686 9.02862 31.1403 9.04084 31.1106 9.04627C29.8269 9.28258 28.543 9.51773 27.2588 9.75204C27.1243 9.77658 27.0356 9.81908 27.0392 9.98385C27.0427 10.1488 27.1061 10.2308 27.2691 10.2568C27.3255 10.2658 27.3811 10.2797 27.4368 10.2936C27.483 10.3051 27.5292 10.3166 27.5759 10.3253C27.8754 10.3814 28.0816 10.5542 28.1695 10.8295C28.2545 11.0955 28.3375 11.3711 28.3554 11.6465C28.3959 12.2727 28.4074 12.9013 28.4102 13.529C28.4183 15.3554 28.4232 17.1819 28.4159 19.0082C28.4124 19.8738 28.3952 20.7393 28.378 21.6048C28.3727 21.8733 28.3673 22.1419 28.3624 22.4105C28.3606 22.5106 28.3871 22.5625 28.4961 22.5789C28.8629 22.6338 29.2295 22.69 29.5962 22.7461C30.0463 22.8151 30.4964 22.8841 30.9468 22.9507C31.075 22.9697 31.2048 22.9784 31.3346 22.987C31.3942 22.991 31.4539 22.995 31.5134 23H32.0274C32.0682 22.9955 32.109 22.9909 32.1498 22.9863C32.2388 22.9763 32.3277 22.9662 32.4168 22.9573C32.5099 22.9479 32.6035 22.9413 32.6971 22.9346C32.8924 22.9207 33.0876 22.9068 33.2777 22.8687C34.7869 22.5662 35.9523 21.7942 36.6697 20.4449C37.0587 19.7133 37.2479 18.9248 37.2914 18.1039C37.3398 17.1897 37.2888 16.2879 36.9238 15.4264C36.5093 14.4478 35.8696 13.6645 34.845 13.2466C33.8064 12.823 32.7629 12.928 31.7315 13.2985C31.6338 13.3336 31.5381 13.3743 31.4345 13.4183C31.384 13.4398 31.3316 13.4621 31.2761 13.4849ZM31.248 18.1178L31.2654 18.1176C31.2654 17.8316 31.2656 17.5456 31.2657 17.2596C31.2661 16.3163 31.2665 15.3729 31.2625 14.4296C31.2619 14.2838 31.3071 14.2185 31.4558 14.1761C32.4538 13.8917 33.1511 14.1674 33.6758 15.0393C34.0437 15.6505 34.2307 16.3266 34.2494 17.0313C34.2668 17.6882 34.2707 18.3506 34.2038 19.0031C34.1213 19.8079 33.8906 20.5844 33.4503 21.2843C33.1526 21.7576 32.7726 22.1433 32.1717 22.2189C31.9537 22.2464 31.7261 22.2258 31.5063 22.2003C31.4424 22.1929 31.3639 22.1014 31.3387 22.0323C31.31 21.9538 31.3094 21.8643 31.3088 21.7771C31.3087 21.7608 31.3086 21.7447 31.3083 21.7287C31.2916 20.7784 31.2761 19.828 31.2605 18.8777C31.2564 18.6244 31.2522 18.3711 31.248 18.1178Z" fill="#8A8A9A"/>
</g>
<path d="M0 9.26927C0.566058 9.26869 1.13208 9.26723 1.69814 9.26765C4.78129 9.27015 7.86448 9.27362 10.9476 9.27431C11.0906 9.27435 11.1794 9.28654 11.1822 9.46604C11.2003 10.6063 11.2267 11.7465 11.2587 12.8864C11.263 13.04 11.2218 13.1093 11.0627 13.1521C10.5849 13.2805 10.6005 13.2827 10.4042 12.8403C10.2196 12.4244 10.0328 12.0044 9.79373 11.6173C9.32355 10.856 8.6399 10.3603 7.70458 10.3173C6.8842 10.2796 6.06053 10.3094 5.20184 10.3094C5.08598 12.071 5.08136 13.8343 5.08899 15.6106C5.4961 15.6106 5.88818 15.6136 6.28018 15.609C6.42454 15.6073 6.56957 15.5939 6.71275 15.5747C7.32883 15.4921 7.66239 15.0925 7.87199 14.5696C7.95752 14.3562 8.00572 14.1288 8.08021 13.9109C8.09789 13.8592 8.14806 13.787 8.19211 13.7804C8.35901 13.7557 8.52951 13.754 8.71234 13.7428V18.3381C8.52785 18.3245 8.35197 18.3202 8.18005 18.2927C8.13853 18.2861 8.09808 18.207 8.0774 18.1537C7.9502 17.8262 7.85531 17.4841 7.69928 17.1706C7.46947 16.7087 7.06043 16.4985 6.53237 16.4857C6.11162 16.4754 5.69131 16.4444 5.27111 16.418C5.13845 16.4097 5.08033 16.4482 5.08539 16.5886C5.13003 17.8299 5.15969 19.0719 5.21821 20.3126C5.23213 20.608 5.31971 20.9044 5.40507 21.1914C5.55473 21.6945 5.89873 21.991 6.44716 22.0509C6.64877 22.0729 6.84889 22.1131 7.04746 22.1552C7.29901 22.2085 7.20874 22.4116 7.21938 22.5634C7.23025 22.7188 7.11452 22.7257 6.99258 22.7256C4.73989 22.7237 2.48716 22.7221 0.234474 22.7265C0.105731 22.7268 0.0430593 22.679 0 22.577V22.3077C0.103319 22.1065 0.31138 22.1196 0.492197 22.0878C1.35255 21.9367 1.70569 21.6056 1.82633 20.7674C1.90094 20.2493 1.96037 19.7259 1.97448 19.2035C2.03881 16.8227 2.07472 14.441 1.93696 12.0617C1.91074 11.6092 1.79548 11.1542 1.66346 10.7169C1.53954 10.3062 1.20566 10.0723 0.771865 9.99069C0.591799 9.95685 0.409756 9.92869 0.227277 9.91296C0.0973877 9.90181 0.0395798 9.85508 0.0416754 9.72342C0.0430198 9.63635 0.0149067 9.54888 0 9.46158V9.26927Z" fill="#8A8A9A"/>
<mask id="mask1_1_533" style="mask-type:alpha" maskUnits="userSpaceOnUse" x="9" y="12" width="11" height="11">
<path fill-rule="evenodd" clip-rule="evenodd" d="M9.79688 12.8401H19.5405V22.995H9.79688V12.8401Z" fill="white"/>
</mask>
<g mask="url(#mask1_1_533)">
<path fill-rule="evenodd" clip-rule="evenodd" d="M14.3713 22.9815C14.3916 22.9865 14.4119 22.9914 14.4321 22.9953H14.6694C14.6976 22.9913 14.7257 22.9869 14.7539 22.9825C14.8158 22.9729 14.8777 22.9632 14.94 22.9578C15.0174 22.951 15.0953 22.9473 15.1732 22.9435C15.319 22.9365 15.4648 22.9295 15.6067 22.9027C17.174 22.6068 18.3398 21.7749 18.9913 20.3523C19.7289 18.7417 19.6984 17.0911 19.0504 15.4602C18.5913 14.3047 17.7406 13.511 16.5256 13.108C15.7206 12.8411 14.8928 12.7873 14.0526 12.8871C12.2325 13.1032 10.954 14.0461 10.2476 15.6758C9.68419 16.9757 9.69059 18.3323 10.0376 19.6872C10.5734 21.7798 12.3223 22.9784 14.2407 22.9606C14.2841 22.9602 14.3277 22.9708 14.3713 22.9815ZM16.2618 15.6096C16.4717 16.5274 16.491 17.4609 16.4907 18.0167C16.4581 19.2205 16.4232 20.0446 16.1842 20.8445C16.06 21.2604 15.8871 21.6505 15.5511 21.9542C15.0565 22.4015 14.3885 22.4004 13.9041 21.9401C13.5347 21.5891 13.35 21.1369 13.1984 20.6705C12.9423 19.8828 12.8616 19.0691 12.8515 18.2488C12.8392 17.2508 12.8424 16.2523 13.077 15.2714C13.1742 14.8651 13.3037 14.4702 13.547 14.1201C14.0288 13.4272 14.854 13.3534 15.448 13.9524C15.908 14.4162 16.1218 14.9976 16.2618 15.6096Z" fill="#8A8A9A"/>
</g>
<path fill-rule="evenodd" clip-rule="evenodd" d="M42.5931 22.9721C42.6695 22.9787 42.7459 22.9853 42.8221 22.9932H43.2175C43.2394 22.9886 43.2613 22.9838 43.2831 22.979C43.3307 22.9686 43.3783 22.9581 43.4264 22.9508C43.5186 22.9366 43.6114 22.925 43.7042 22.9135C43.8917 22.8901 44.0791 22.8667 44.2611 22.8223C45.2147 22.5896 46.0164 22.1094 46.6495 21.3738C46.796 21.2036 46.7787 21.1239 46.6351 20.9562C46.5157 20.817 46.4103 20.8873 46.3095 20.9545C46.3038 20.9583 46.2982 20.9621 46.2925 20.9658C45.6518 21.3886 44.9439 21.5348 44.1762 21.5103C43.0072 21.4728 42.1637 20.9293 41.5951 19.9699C41.1742 19.2596 41.0699 18.4642 41.042 17.6573C41.0371 17.5167 41.12 17.5172 41.2123 17.5177C41.2203 17.5178 41.2285 17.5178 41.2366 17.5178C42.2857 17.512 43.3348 17.5059 44.3839 17.4998C45.1333 17.4954 45.8826 17.4911 46.632 17.4868C46.9065 17.4853 46.9299 17.471 46.9159 17.2083C46.8808 16.5484 46.7928 15.8957 46.5592 15.271C46.1495 14.175 45.4259 13.3732 44.2543 13.0169C43.6103 12.8211 42.9478 12.8049 42.2811 12.886C41.0728 13.033 40.0536 13.5336 39.2837 14.4576C38.5534 15.3342 38.1735 16.3516 38.1265 17.4796C38.0953 18.229 38.0898 18.9788 38.3391 19.7034C38.9515 21.4838 40.1741 22.5917 42.0999 22.9163C42.2628 22.9437 42.4279 22.9579 42.5931 22.9721ZM41.5786 16.7292V16.7324C41.546 16.7324 41.5133 16.7316 41.4806 16.7307C41.4077 16.7288 41.3347 16.7269 41.2628 16.7344C41.0998 16.7514 41.0555 16.6803 41.0686 16.5348C41.1393 15.7459 41.2814 14.9717 41.706 14.2837C41.8498 14.0507 42.0617 13.8346 42.2917 13.6802C42.6567 13.4351 43.0642 13.5314 43.341 13.8694C43.6251 14.216 43.7448 14.6322 43.811 15.0551C43.8619 15.3805 43.8899 15.7092 43.9179 16.038C43.9316 16.1995 43.9454 16.3611 43.9618 16.5222C43.9739 16.6413 43.9091 16.6581 43.8082 16.6609C43.2389 16.6768 42.6697 16.6948 42.1005 16.7128C41.9265 16.7183 41.7526 16.7238 41.5786 16.7292Z" fill="#8A8A9A"/>
<path d="M55.0012 19.8849C54.988 19.934 54.9667 19.9824 54.9626 20.0321C54.8503 21.4158 54.0383 22.255 52.7488 22.7178C52.3017 22.8782 51.8405 22.9682 51.3588 22.9547C50.9572 22.9434 50.5547 22.9645 50.1533 22.9518C49.326 22.9257 48.5287 22.7417 47.7451 22.4927C47.6233 22.4539 47.5631 22.394 47.5605 22.2613C47.5439 21.403 47.5222 20.5448 47.4982 19.6868C47.493 19.5027 47.6446 19.5071 47.7549 19.4851C47.8599 19.4642 47.9791 19.426 48.0512 19.5833C48.233 19.9801 48.4138 20.3798 48.6346 20.7564C48.923 21.2485 49.3028 21.6791 49.8688 21.8724C50.5399 22.1017 51.2095 22.1421 51.8068 21.653C52.3613 21.1988 52.5528 20.0433 51.6781 19.531C51.2188 19.262 50.7175 19.0598 50.2307 18.8366C49.8622 18.6678 49.4716 18.5398 49.1173 18.3474C48.225 17.8629 47.7436 17.1312 47.686 16.1143C47.595 14.5098 48.8128 13.3458 50.1617 13.0118C51.0652 12.7882 51.976 12.8063 52.8835 12.9574C53.3472 13.0346 53.7999 13.1743 54.2571 13.2872C54.3819 13.3181 54.4327 13.394 54.4345 13.525C54.4441 14.2553 54.4535 14.9859 54.482 15.7157C54.4905 15.9349 54.3372 15.9425 54.2014 15.9862C54.048 16.0356 53.9739 15.9482 53.918 15.8221C53.7726 15.4935 53.6386 15.1584 53.468 14.8422C53.1533 14.2588 52.6987 13.8353 52.0159 13.6608C50.9344 13.3845 50.0764 14.2306 50.3231 15.3228C50.3906 15.6215 50.5898 15.8503 50.8407 16.0023C51.2857 16.2719 51.7521 16.5093 52.2185 16.7434C52.7146 16.9924 53.2345 17.199 53.7199 17.4655C54.3553 17.8144 54.7791 18.3391 54.9287 19.0498C54.9548 19.174 54.9771 19.2988 55.0012 19.4234V19.8849Z" fill="#8A8A9A"/>
<path d="M23.8202 12.858C23.7956 13.5245 23.7719 14.1669 23.7483 14.8093C23.7642 14.8149 23.7802 14.8205 23.7962 14.826C23.8358 14.7655 23.8783 14.7067 23.9145 14.6443C24.2315 14.0971 24.6082 13.6014 25.1594 13.2516C25.8393 12.8202 26.5685 12.7141 27.348 12.9295C27.4046 12.9452 27.4601 12.9659 27.5144 12.9883C27.6612 13.0488 27.7241 13.1346 27.6578 13.3012C27.3563 14.0584 27.0615 14.8181 26.7709 15.5794C26.7179 15.7184 26.65 15.7277 26.5184 15.68C26.1565 15.5487 25.797 15.3949 25.4218 15.3187C24.9476 15.2223 24.4784 15.3106 24.0454 15.5349C23.8677 15.627 23.7485 15.7536 23.747 15.9713C23.7406 16.8812 23.7065 17.7912 23.7193 18.7007C23.7304 19.4875 23.7891 20.2738 23.8323 21.0602C23.8385 21.1738 23.8715 21.2867 23.8988 21.3984C23.9998 21.8108 24.248 22.06 24.7014 22.0913C24.8779 22.1035 25.053 22.1576 25.2283 22.1558C25.4129 22.154 25.4593 22.232 25.4433 22.3867C25.4381 22.4377 25.4315 22.489 25.4329 22.5399C25.4369 22.6774 25.3777 22.7247 25.2311 22.7242C23.4059 22.7191 21.5807 22.7174 19.7555 22.7234C19.565 22.724 19.5128 22.6571 19.5272 22.4888C19.541 22.3281 19.5001 22.1648 19.7615 22.137C20.6119 22.0462 20.8157 21.6435 20.8345 20.9021C20.8779 19.1925 20.8759 17.4816 20.877 15.7712C20.8771 15.4671 20.8249 15.1584 20.7583 14.86C20.6804 14.5102 20.4719 14.2602 20.0754 14.2081C19.9456 14.191 19.8185 14.1553 19.6893 14.1337C19.5545 14.111 19.5012 14.0343 19.5085 13.9058C19.5153 13.7865 19.522 13.6813 19.6826 13.6502C20.2942 13.5315 20.903 13.3991 21.5146 13.2805C22.242 13.1395 22.9713 13.0072 23.6999 12.8716C23.7311 12.8658 23.7631 12.8643 23.8202 12.858Z" fill="#8A8A9A"/>
</g>
<defs>
<clipPath id="clip0_1_533">
<rect width="55" height="32" fill="white"/>
</clipPath>
</defs>
</svg>
