<svg width="107" height="32" viewBox="0 0 107 32" fill="none" xmlns="http://www.w3.org/2000/svg">
<g clip-path="url(#clip0_1_553)">
<path fill-rule="evenodd" clip-rule="evenodd" d="M31.3514 12.0566C31.334 12.0681 31.3137 12.0816 31.2891 12.0953V23.1244H34.6519V19.6039C34.938 19.6039 35.2197 19.6094 35.4979 19.6149C36.1052 19.6269 36.6963 19.6386 37.2817 19.5914C38.7533 19.4727 40.0285 18.973 40.7295 17.6713C42.0686 15.1846 40.6133 12.4763 37.6313 12.1679C36.2066 12.0205 34.7634 12.0249 33.3202 12.0293C32.6879 12.0313 32.0555 12.0332 31.4248 12.0223C31.4035 12.022 31.3818 12.0364 31.3514 12.0566ZM35.2796 17.1595C35.0871 17.1548 34.8902 17.1499 34.6875 17.1499V14.4675C34.8913 14.4781 35.0921 14.4837 35.2902 14.4891C35.7277 14.5012 36.1518 14.513 36.5661 14.5779C37.3317 14.6979 37.6819 15.1685 37.6611 15.8839C37.6405 16.5893 37.2458 17.0573 36.4874 17.1379C36.0961 17.1795 35.6983 17.1698 35.2796 17.1595Z" fill="#8A8A9A"/>
<path fill-rule="evenodd" clip-rule="evenodd" d="M83.7657 23.1376H86.8387V21.207C86.8387 20.6182 86.8387 20.0294 86.8388 19.4405C86.8391 17.1402 86.8395 14.8399 86.8335 12.5397C86.8334 12.5009 86.8377 12.4584 86.8422 12.4149C86.8619 12.2214 86.8838 12.0067 86.5277 12.0039C85.8514 11.9988 85.175 11.9998 84.4741 12.0008C84.1815 12.0013 83.8846 12.0017 83.5817 12.0017V15.9269C81.9007 14.3069 78.8029 14.8451 77.9616 17.276C77.5864 18.3605 77.5651 19.4501 77.7981 20.5649C78.3728 23.3126 81.8366 24.3716 83.7064 22.3516L83.7657 23.1376ZM83.7334 18.7568C83.775 18.9101 83.817 19.0645 83.867 19.2168C83.814 19.3717 83.7699 19.5266 83.7264 19.6788C83.6326 20.008 83.5422 20.3248 83.3742 20.6015C82.9335 21.327 81.9494 21.3115 81.4359 20.6224C80.9212 19.9319 80.9259 18.444 81.4447 17.759C81.9618 17.0764 82.9536 17.0686 83.3811 17.7974C83.5519 18.0887 83.6419 18.42 83.7334 18.7568Z" fill="#8A8A9A"/>
<path fill-rule="evenodd" clip-rule="evenodd" d="M96.7287 22.8884C96.7287 22.735 96.7287 22.5803 96.7287 22.424C98.4944 23.7249 100.556 23.5496 101.71 22.0722C102.853 20.6106 102.826 17.8637 101.696 16.3912C100.577 14.9326 97.9113 14.6101 96.7415 16.0944C96.7349 16.1028 96.7058 16.0961 96.675 16.0891C96.6602 16.0857 96.645 16.0823 96.6318 16.0803L96.5779 15.4009H93.5743V21.1536C93.5743 21.481 93.5738 21.8085 93.5733 22.1359C93.5715 23.2702 93.5698 24.4045 93.5892 25.5385C93.5918 25.6922 93.7956 25.9698 93.9163 25.9747C94.6173 26.003 95.3199 25.9999 96.0064 25.9968C96.218 25.9959 96.4281 25.995 96.6361 25.995C96.657 25.96 96.6752 25.9337 96.6896 25.9129C96.7128 25.8794 96.7263 25.8598 96.7264 25.8401C96.7288 24.8764 96.7288 23.9129 96.7287 22.8884ZM99.2069 18.7779C99.2499 18.927 99.2929 19.0763 99.3437 19.2215C99.2911 19.3777 99.2477 19.5318 99.2054 19.682C99.1151 20.0024 99.03 20.3048 98.872 20.5706C98.4363 21.3037 97.4034 21.3204 96.9627 20.5993C96.4152 19.7035 96.4122 18.7485 96.9615 17.8512C97.3917 17.1489 98.3994 17.1346 98.8375 17.8321C99.0165 18.1175 99.1117 18.4474 99.2069 18.7779Z" fill="#8A8A9A"/>
<path fill-rule="evenodd" clip-rule="evenodd" d="M42.0654 17.8948C41.1691 20.9677 43.2225 23.4064 46.7037 23.4029C49.0066 23.4007 50.6636 22.4105 51.2656 20.6768C52.3662 17.5076 50.0391 14.7725 46.4166 14.9776C44.1113 15.1082 42.5785 16.1358 42.0654 17.8948ZM45.3386 19.6216C45.3028 19.4799 45.2669 19.3379 45.2266 19.1971C45.2683 19.0493 45.3046 18.9032 45.3402 18.7596C45.4196 18.4403 45.4959 18.1329 45.6223 17.844C45.8088 17.4182 46.2169 17.211 46.7309 17.2221C47.2199 17.2327 47.5845 17.4458 47.7793 17.8489C48.2167 18.7547 48.2251 19.6733 47.762 20.5739C47.5569 20.9728 47.1845 21.1718 46.6952 21.1732C46.2026 21.175 45.8121 20.9691 45.6352 20.5692C45.5017 20.2669 45.4203 19.9451 45.3386 19.6216Z" fill="#8A8A9A"/>
<path d="M15.9336 15.2598H18.8718C18.8893 15.5191 18.9049 15.7513 18.9251 16.0505C19.0445 15.966 19.1339 15.9151 19.2071 15.8488C20.2114 14.9407 21.4104 14.8113 22.676 15.2027C23.8842 15.5763 24.4718 16.4876 24.5207 17.5878C24.6019 19.4158 24.5428 21.2491 24.5428 23.1194H21.353C21.3448 22.9536 21.329 22.7776 21.3288 22.6016C21.3265 21.3792 21.3288 20.1568 21.3265 18.9343C21.326 18.7123 21.3283 18.4885 21.2995 18.2688C21.2374 17.7934 21.0408 17.4056 20.4504 17.335C19.8949 17.2685 19.4689 17.5274 19.3088 18.1097C19.1966 18.5172 19.1541 18.9492 19.1472 19.3713C19.1269 20.609 19.1401 21.8473 19.1401 23.1216H15.9336V15.2598Z" fill="#8A8A9A"/>
<path d="M5.50195 15.2543H8.44981C8.46407 15.5083 8.47712 15.7419 8.49271 16.0211C8.57719 15.9794 8.65163 15.9613 8.69695 15.9176C9.68899 14.9604 10.9016 14.8051 12.1982 15.1877C13.4407 15.5543 14.0366 16.4834 14.0888 17.6035C14.1739 19.4293 14.1118 21.2612 14.1118 23.1242H10.8968V22.3724C10.8968 21.168 10.9022 19.9636 10.8924 18.7592C10.8903 18.5029 10.916 18.1985 10.7809 18.0027C10.5968 17.7359 10.3069 17.4522 9.99679 17.357C9.55763 17.2224 9.13043 17.4492 8.98445 17.8611C8.83145 18.293 8.73671 18.7592 8.72486 19.2129C8.69139 20.5049 8.71314 21.7982 8.71314 23.1242H5.50195V15.2543Z" fill="#8A8A9A"/>
<path d="M67.7246 15.2452H70.669C70.6912 15.5003 70.7125 15.7437 70.7231 15.8682C71.387 15.5942 72.0368 15.1721 72.7434 15.0632C74.787 14.7481 76.2462 15.8489 76.3487 17.8C76.4409 19.5533 76.3682 21.3137 76.3682 23.1138H73.1288C73.1288 21.6979 73.1338 20.2956 73.1248 18.8933C73.123 18.5997 73.0987 18.3009 73.0337 18.0142C72.9431 17.6146 72.6718 17.3583 72.2042 17.3282C71.7294 17.2978 71.3421 17.4727 71.2006 17.8857C71.058 18.3022 70.9664 18.7492 70.9559 19.1851C70.9249 20.4791 70.9447 21.7741 70.9447 23.1125H67.7246V15.2452Z" fill="#8A8A9A"/>
<path fill-rule="evenodd" clip-rule="evenodd" d="M65.4991 23.1655C65.6903 23.1649 65.8779 23.1643 66.0605 23.1643C66.0501 22.7987 66.0398 22.437 66.0296 22.0781C66.0041 21.1773 65.9791 20.2941 65.953 19.4109C65.9476 19.2308 65.9456 19.0504 65.9436 18.8699C65.9389 18.4383 65.9342 18.0067 65.8829 17.5799C65.7699 16.6405 65.2903 15.8634 64.3333 15.4661C62.627 14.7579 60.8847 14.7659 59.1986 15.5202C58.251 15.9442 57.7786 16.7119 57.6938 17.7381H59.2509H60.7315C60.9712 16.901 61.417 16.5951 62.0877 16.7604C62.5687 16.8788 62.8822 17.3368 62.8191 17.8447C62.7759 18.1937 62.54 18.1747 62.3114 18.1563C62.2214 18.149 62.1324 18.1419 62.0568 18.1573C61.6957 18.2311 61.3299 18.2907 60.9644 18.3502C60.3188 18.4552 59.6739 18.5602 59.056 18.7435C57.7946 19.1176 57.2504 19.9475 57.3251 21.0621C57.4003 22.1821 58.1764 23.0284 59.414 23.2841C60.8337 23.5774 62.0792 23.2767 63.1197 22.2029C63.1329 22.2901 63.1416 22.3706 63.1496 22.4457C63.1668 22.6063 63.1814 22.7419 63.233 22.8643C63.2839 22.9852 63.4447 23.1479 63.5611 23.1513C64.2197 23.1698 64.8789 23.1676 65.4991 23.1655ZM62.2302 19.6704C62.4022 19.64 62.5745 19.6095 62.7462 19.5754C62.953 20.8097 62.4268 21.5426 61.434 21.5181C60.9871 21.507 60.6461 21.35 60.5494 20.916C60.4498 20.4695 60.573 20.0693 61.0711 19.9208C61.4467 19.8088 61.8374 19.7397 62.2302 19.6704Z" fill="#8A8A9A"/>
<mask id="mask0_1_553" style="mask-type:alpha" maskUnits="userSpaceOnUse" x="0" y="12" width="108" height="14">
<path fill-rule="evenodd" clip-rule="evenodd" d="M0.00195312 26H107.002V12H0.00195312V26Z" fill="white"/>
</mask>
<g mask="url(#mask0_1_553)">
<path d="M0.00195312 23.1256H3.34614V12.0381H0.00195312V23.1256Z" fill="#8A8A9A"/>
</g>
<mask id="mask1_1_553" style="mask-type:alpha" maskUnits="userSpaceOnUse" x="0" y="12" width="108" height="14">
<path fill-rule="evenodd" clip-rule="evenodd" d="M0.00195312 26H107.002V12H0.00195312V26Z" fill="white"/>
</mask>
<g mask="url(#mask1_1_553)">
<path d="M52.8867 23.1229H56.0652V12.0264H52.8867V23.1229Z" fill="#8A8A9A"/>
</g>
<mask id="mask2_1_553" style="mask-type:alpha" maskUnits="userSpaceOnUse" x="0" y="12" width="108" height="14">
<path fill-rule="evenodd" clip-rule="evenodd" d="M0.00195312 26H107.002V12H0.00195312V26Z" fill="white"/>
</mask>
<g mask="url(#mask2_1_553)">
<path d="M103.887 23.067H107.005V12.2666H103.887V23.067Z" fill="#8A8A9A"/>
</g>
<mask id="mask3_1_553" style="mask-type:alpha" maskUnits="userSpaceOnUse" x="0" y="12" width="108" height="14">
<path fill-rule="evenodd" clip-rule="evenodd" d="M0.00195312 26H107.002V12H0.00195312V26Z" fill="white"/>
</mask>
<g mask="url(#mask3_1_553)">
<path d="M29.8415 21.5446C29.8464 22.5048 29.0296 23.2958 28.0093 23.3191C27.0012 23.342 26.0744 22.4989 26.0762 21.5605C26.0777 20.6184 26.9241 19.847 27.9606 19.8428C29.0098 19.8386 29.8365 20.5866 29.8415 21.5446Z" fill="#8A8A9A"/>
</g>
<mask id="mask4_1_553" style="mask-type:alpha" maskUnits="userSpaceOnUse" x="0" y="12" width="108" height="14">
<path fill-rule="evenodd" clip-rule="evenodd" d="M0.00195312 26H107.002V12H0.00195312V26Z" fill="white"/>
</mask>
<g mask="url(#mask4_1_553)">
<path d="M29.8428 17.0109C29.8382 17.9738 28.9863 18.7689 27.9697 18.759C26.9617 18.7491 26.0784 17.9307 26.0781 17.0064C26.0779 16.0583 26.9282 15.2859 27.9741 15.2843C29.0207 15.2827 29.8475 16.0467 29.8428 17.0109Z" fill="#8A8A9A"/>
</g>
<mask id="mask5_1_553" style="mask-type:alpha" maskUnits="userSpaceOnUse" x="0" y="12" width="108" height="14">
<path fill-rule="evenodd" clip-rule="evenodd" d="M0.00195312 26H107.002V12H0.00195312V26Z" fill="white"/>
</mask>
<g mask="url(#mask5_1_553)">
<path d="M90.1858 23.2908C89.144 23.2803 88.2728 22.4531 88.2974 21.4975C88.3212 20.5648 89.1968 19.7911 90.2217 19.797C91.2441 19.8029 92.1021 20.5932 92.104 21.5306C92.106 22.4952 91.2276 23.3012 90.1858 23.2908Z" fill="#8A8A9A"/>
</g>
</g>
<defs>
<clipPath id="clip0_1_553">
<rect width="107" height="32" fill="white"/>
</clipPath>
</defs>
</svg>
