<svg width="20" height="20" viewBox="0 0 20 20" fill="none" xmlns="http://www.w3.org/2000/svg">
<g id=".DISCONTINUED / brand / instagram">
<path id="Vector" d="M10.0016 17.5342C7.95159 17.5342 7.70992 17.5233 6.90992 17.4883C6.28606 17.4678 5.67028 17.341 5.08909 17.1133C4.08351 16.722 3.28837 15.9265 2.89742 14.9208C2.67851 14.3375 2.56044 13.7212 2.54825 13.0983C2.50159 12.3 2.50159 12.0383 2.50159 10.0042C2.50159 7.94832 2.51242 7.70832 2.54825 6.91248C2.5607 6.29042 2.67877 5.67499 2.89742 5.09248C3.28795 4.08543 4.08438 3.28929 5.09159 2.89915C5.67379 2.67932 6.28938 2.56094 6.91159 2.54915C7.70742 2.50415 7.96909 2.50415 10.0016 2.50415C12.0683 2.50415 12.3058 2.51498 13.0933 2.54915C13.7171 2.56104 14.3343 2.67941 14.9183 2.89915C15.9252 3.28974 16.7215 4.08571 17.1124 5.09248C17.335 5.68348 17.4537 6.30853 17.4633 6.93998C17.5099 7.73832 17.5099 7.99915 17.5099 10.0325C17.5099 12.0658 17.4983 12.3325 17.4633 13.1217C17.4508 13.7452 17.3325 14.362 17.1133 14.9458C16.7213 15.9522 15.925 16.748 14.9183 17.1392C14.3351 17.3576 13.7192 17.4757 13.0966 17.4883C12.3008 17.5342 12.0399 17.5342 10.0016 17.5342ZM9.97325 3.82332C7.93492 3.82332 7.72325 3.83332 6.92742 3.86915C6.45241 3.87544 5.98199 3.9631 5.53659 4.12832C4.87888 4.37999 4.35844 4.89831 4.10409 5.55498C3.9376 6.00523 3.84993 6.4808 3.84492 6.96082C3.80075 7.76832 3.80075 7.97998 3.80075 10.0042C3.80075 12.0042 3.80825 12.2467 3.84492 13.0492C3.85238 13.5243 3.94 13.9948 4.10409 14.4408C4.35882 15.0971 4.87917 15.615 5.53659 15.8667C5.98168 16.033 6.4523 16.1207 6.92742 16.1258C7.73409 16.1725 7.94659 16.1725 9.97325 16.1725C12.0174 16.1725 12.2291 16.1625 13.0183 16.1258C13.4936 16.12 13.9644 16.0324 14.4099 15.8667C15.0636 15.6128 15.5807 15.0961 15.8349 14.4425C16.0011 13.9919 16.0887 13.5161 16.0941 13.0358H16.1033C16.1391 12.2392 16.1391 12.0267 16.1391 9.99082C16.1391 7.95498 16.1299 7.74082 16.0941 6.94498C16.0866 6.47036 15.999 6.00041 15.8349 5.55498C15.5813 4.90046 15.0641 4.38273 14.4099 4.12832C13.9645 3.96227 13.4936 3.87458 13.0183 3.86915C12.2124 3.82332 12.0016 3.82332 9.97325 3.82332ZM10.0016 13.8533C8.44324 13.8543 7.03777 12.9164 6.44064 11.477C5.84351 10.0376 6.17234 8.38026 7.27378 7.27787C8.37522 6.17548 10.0323 5.84521 11.4722 6.44109C12.9121 7.03698 13.8512 8.44164 13.8516 9.99998C13.8493 12.1259 12.1275 13.8492 10.0016 13.8533ZM10.0016 7.49832C8.62087 7.49832 7.50159 8.61761 7.50159 9.99832C7.50159 11.379 8.62087 12.4983 10.0016 12.4983C11.3823 12.4983 12.5016 11.379 12.5016 9.99832C12.4984 8.61894 11.381 7.50152 10.0016 7.49832ZM14.0016 6.90415C13.5061 6.90231 13.1057 6.49964 13.1066 6.00416C13.1075 5.50867 13.5094 5.10749 14.0049 5.10749C14.5004 5.10749 14.9023 5.50867 14.9033 6.00415C14.9035 6.2432 14.8085 6.4725 14.6393 6.64138C14.4701 6.81026 14.2406 6.90481 14.0016 6.90415Z" fill="#8A8A9A"/>
</g>
</svg>
