<svg width="78" height="22" viewBox="0 0 78 22" fill="none" xmlns="http://www.w3.org/2000/svg">
<path d="M2.2327 21V18.2718H6.0809V3.62564H2.2327V0.897434H12.8871V3.62564H9.03885V18.2718H12.8871V21H2.2327ZM16.7893 21V0.897434H22.3032L29.7124 18.4728H30.2581V0.897434H33.1586V21H27.5586L20.2355 3.42461H19.6898V21H16.7893ZM42.4645 21L35.7445 1.27077V0.897434H38.8461L44.6184 18.4728H45.2214L51.0512 0.897434H54.1527V1.27077L47.4614 21H42.4645ZM65.5475 21.3733C59.6029 21.3733 55.2377 16.9221 55.2377 10.9487C55.2377 5.06154 59.6316 0.524101 65.5762 0.524101C71.5208 0.524101 75.9147 5.09026 75.9147 10.9487C75.9147 16.8359 71.4921 21.3733 65.5475 21.3733ZM65.5762 18.559C69.7116 18.559 72.8418 15.4 72.8418 10.9487C72.8418 6.55487 69.7116 3.33846 65.5762 3.33846C61.4408 3.33846 58.2818 6.55487 58.2818 10.9487C58.2818 15.4 61.4408 18.559 65.5762 18.559Z" fill="white"/>
</svg>
