<svg width="40" height="40" viewBox="0 0 40 40" fill="none" xmlns="http://www.w3.org/2000/svg">
<path d="M28.3333 10C28.3333 10.5844 28.2331 11.1454 28.0488 11.6667L33.3333 11.6667C34.2538 11.6667 35 12.4129 35 13.3333V18.6178C34.4787 18.4336 33.9177 18.3333 33.3333 18.3333C30.5719 18.3333 28.3333 20.5719 28.3333 23.3333C28.3333 26.0948 30.5719 28.3333 33.3333 28.3333C33.9177 28.3333 34.4787 28.2331 35 28.0488V33.3333C35 34.2538 34.2538 35 33.3333 35H13.3333C12.4129 35 11.6667 34.2538 11.6667 33.3333V28.0488C11.1454 28.2331 10.5844 28.3333 10 28.3333C7.23858 28.3333 5 26.0948 5 23.3333C5 20.5719 7.23858 18.3333 10 18.3333C10.5844 18.3333 11.1454 18.4336 11.6667 18.6178V13.3333C11.6667 12.4129 12.4129 11.6667 13.3333 11.6667L18.6178 11.6667C18.4336 11.1454 18.3333 10.5844 18.3333 10C18.3333 7.23858 20.5719 5 23.3333 5C26.0948 5 28.3333 7.23858 28.3333 10Z" stroke="#1424FF" stroke-width="2" stroke-linecap="round" stroke-linejoin="round"/>
</svg>
