<svg width="16" height="16" viewBox="0 0 16 16" fill="none" xmlns="http://www.w3.org/2000/svg">
<path d="M9.72039 13.7718C9.13243 12.5048 7.74245 11.0882 5.58941 10.224C4.53042 9.79553 3.51809 9.60298 2.58747 9.65357L2.41355 9.00447C4.04813 8.11924 5.44889 6.48501 6.11965 4.59915C6.46069 3.64642 6.60495 2.76298 6.54002 1.90246L7.18912 1.72854C7.87011 3.21907 9.53938 4.62701 11.4882 5.34716C12.445 5.70365 13.3831 5.8664 14.2828 5.8241L14.4568 6.4732C12.8365 7.28832 11.2528 9.35255 10.682 11.1785C10.3986 12.0992 10.2996 12.9043 10.3695 13.5978L9.72039 13.7718Z" fill="#09090D"/>
</svg>
