<svg width="60" height="32" viewBox="0 0 60 32" fill="none" xmlns="http://www.w3.org/2000/svg">
<path d="M54.1738 23.4766H55.0699L54.1738 24.3616" fill="#8A8A9A"/>
<path d="M38.5625 23.4766V25.919H50.8736V23.4766" fill="#8A8A9A"/>
<path d="M45.5281 12.25H49.4341C49.4392 12.3508 49.4476 12.4407 49.4476 12.5306C49.4475 14.5708 49.4659 16.6113 49.4384 18.6513C49.4216 19.8942 49.1084 21.0489 48.0773 21.9105C47.2158 22.6305 46.204 22.9763 45.0772 23.0889C44.0162 23.1949 42.9924 23.0872 42.0163 22.6886C40.4091 22.0325 39.4581 20.8799 39.4171 19.1665C39.3625 16.888 39.3725 14.6079 39.3555 12.3285C39.3554 12.3111 39.3646 12.2937 39.3748 12.257H43.2715V12.5664C43.2715 14.4119 43.2661 16.2574 43.2767 18.1029C43.2786 18.4229 43.3246 18.7473 43.3922 19.0612C43.4936 19.5322 43.8185 19.7813 44.2953 19.8036C44.8627 19.8302 45.215 19.6411 45.3567 19.1532C45.4584 18.8033 45.5176 18.4306 45.5208 18.0675C45.5368 16.25 45.5281 14.4322 45.5281 12.6145V12.25Z" fill="#8A8A9A"/>
<mask id="mask0_1_591" style="mask-type:alpha" maskUnits="userSpaceOnUse" x="0" y="12" width="10" height="12">
<path fill-rule="evenodd" clip-rule="evenodd" d="M0 12H9.07588V23.1188H0V12Z" fill="white"/>
</mask>
<g mask="url(#mask0_1_591)">
<path d="M0.0022654 21.9541C0.0022654 21.9204 -0.00333399 21.9007 0.00307355 21.8857C0.408885 20.9333 0.815677 19.9812 1.22657 19.0193C1.66471 19.256 2.08864 19.5026 2.52909 19.7181C3.01912 19.9578 3.53958 20.1072 4.09928 20.0813C4.17554 20.0778 4.25387 20.0759 4.32701 20.0575C4.59942 19.989 4.8515 19.8739 4.88083 19.5701C4.91021 19.2658 4.6632 19.118 4.41741 19.0418C3.95682 18.8992 3.48046 18.8046 3.01346 18.6804C1.94335 18.3959 1.06118 17.8746 0.735207 16.783C0.296839 15.3151 0.796801 13.7152 2.23342 12.7783C3.11333 12.2045 4.09576 12.0105 5.14106 12.0003C6.42511 11.9879 7.61171 12.3203 8.74227 12.8784C8.78348 12.8988 8.81916 12.9295 8.8774 12.9688C8.48343 13.8778 8.09187 14.7813 7.73011 15.6161C7.12203 15.3796 6.55268 15.1233 5.95862 14.9425C5.67866 14.8573 5.34823 14.8894 5.04621 14.9196C4.79996 14.9442 4.58043 15.0877 4.54931 15.3498C4.5212 15.5862 4.71325 15.7276 4.91396 15.7957C5.39713 15.9596 5.88248 16.1316 6.38152 16.235C7.42716 16.4516 8.33092 16.8776 8.7642 17.8652C9.31825 19.1281 9.1206 20.3529 8.27492 21.4431C7.4502 22.5063 6.28235 22.9695 4.93238 23.0892C3.14762 23.2474 1.53528 22.7594 0.0022654 21.9541Z" fill="#8A8A9A"/>
</g>
<mask id="mask1_1_591" style="mask-type:alpha" maskUnits="userSpaceOnUse" x="50" y="15" width="10" height="12">
<path fill-rule="evenodd" clip-rule="evenodd" d="M50.8652 15.1133H59.9989V26.0711H50.8652V15.1133Z" fill="white"/>
</mask>
<g mask="url(#mask1_1_591)">
<path fill-rule="evenodd" clip-rule="evenodd" d="M54.5471 21.9408C54.5471 22.0908 54.546 22.2401 54.545 22.3889C54.5423 22.7676 54.5397 23.1429 54.5529 23.5177C54.5615 23.7618 54.5148 23.9218 54.2757 24.0615C53.9323 24.2622 53.5967 24.4753 53.2611 24.6883C52.9544 24.883 52.6477 25.0777 52.335 25.263C52.1008 25.4018 51.9841 25.5541 52.0272 25.8186C52.0358 25.8715 52.0283 25.9268 52.0203 25.9853C52.0165 26.0131 52.0126 26.0417 52.0103 26.0711H50.8652V15.3733H54.4226V16.3387C54.4905 16.2733 54.5521 16.213 54.61 16.1563C54.7243 16.0443 54.8239 15.9468 54.9276 15.8535C56.2225 14.6888 58.4762 14.8513 59.4381 16.6779C59.7632 17.2953 59.9054 17.9496 59.9708 18.6366C60.0501 19.47 59.9666 20.2771 59.6595 21.0525C59.304 21.9501 58.7299 22.6852 57.7304 22.9705C56.6344 23.2832 55.6466 23.0743 54.8388 22.2525C54.7745 22.1871 54.7124 22.1196 54.6503 22.0522C54.616 22.0149 54.5818 21.9777 54.5471 21.9408ZM54.5307 21.9239C54.5291 21.9233 54.5268 21.9236 54.5261 21.9239C54.5254 21.9242 54.5262 21.9245 54.5307 21.9239ZM56.432 19.113C56.4261 19.7803 56.0291 20.2067 55.4148 20.2058C54.8135 20.2048 54.4103 19.7499 54.4262 19.0901C54.4423 18.4238 54.8633 17.9573 55.438 17.969C56.013 17.9806 56.4377 18.4694 56.432 19.113Z" fill="#8A8A9A"/>
</g>
<path fill-rule="evenodd" clip-rule="evenodd" d="M20.9822 15.371V16.2991C20.9557 16.2899 20.9361 16.2842 20.9213 16.2798C20.8986 16.2731 20.8875 16.2699 20.8807 16.2628C20.8493 16.23 20.819 16.1961 20.7888 16.1622C20.7627 16.133 20.7366 16.1037 20.7097 16.0752C19.8736 15.1863 18.8387 14.9108 17.6639 15.2494C16.6682 15.5364 16.0934 16.2765 15.7503 17.1808C15.4485 17.9762 15.3622 18.8022 15.4381 19.6529C15.5059 20.4113 15.691 21.1228 16.1202 21.7644C16.6996 22.6304 17.5051 23.1424 18.5967 23.1265C19.5158 23.113 20.2381 22.6875 20.8206 22.0213C20.8715 21.9631 20.9257 21.9077 20.9799 21.8522C21.0051 21.8264 21.0303 21.8006 21.0552 21.7746L21.1235 21.8063V22.8349H24.5515V15.371H20.9822ZM19.0145 19.1756C19.0142 19.1651 19.014 19.1571 19.0137 19.1523C19.0123 18.2787 19.5666 17.8076 20.2852 17.9995C20.5873 18.0802 20.7811 18.2745 20.8928 18.5459C21.0287 18.8763 21.0352 19.2144 20.9123 19.5504C20.749 19.9974 20.3921 20.193 19.8376 20.1459C19.4383 20.1121 19.0975 19.7826 19.029 19.359C19.0175 19.2874 19.0155 19.2143 19.0145 19.1756Z" fill="#8A8A9A"/>
<path d="M9.18359 15.3394H10.2378V12.9141H13.9972V15.3472H15.0366V18.0718H14.0111V22.8351H10.2481V22.5227C10.2481 21.188 10.2489 19.8534 10.2476 18.5186C10.2471 18.0268 10.2972 18.0819 9.77719 18.0786C9.58588 18.0774 9.39458 18.0784 9.18359 18.0784V15.3394Z" fill="#8A8A9A"/>
<path d="M37.5098 22.8372H33.7647V18.0833H32.7305V15.3576H33.7508V12.9062H37.4987V15.3351H38.5766V18.0767C38.3126 18.0767 38.055 18.09 37.7996 18.0729C37.5682 18.0573 37.5039 18.1395 37.5054 18.358C37.5141 19.7573 37.5098 21.1568 37.5098 22.5562C37.5097 22.6392 37.5098 22.7222 37.5098 22.8372Z" fill="#8A8A9A"/>
<path d="M29.4761 22.8373H25.75V15.3673H29.3604V16.3134C30.0863 15.5298 30.9082 15.0229 32.0495 15.1319V18.684C31.7914 18.6069 31.5291 18.4979 31.2555 18.4521C30.1898 18.2738 29.4878 18.8916 29.4781 19.8465C29.4691 20.7362 29.4761 21.626 29.4761 22.5159V22.8373Z" fill="#8A8A9A"/>
<path fill-rule="evenodd" clip-rule="evenodd" d="M46.3674 24.1171L45.445 25.3613C45.3962 25.2462 45.3486 25.1337 45.3019 25.0232C45.153 24.6707 45.0125 24.3382 44.8669 24.0078C44.8413 23.9499 44.7777 23.8981 44.7181 23.8686C44.6964 23.8579 44.6134 23.9116 44.596 23.9513C44.4304 24.3301 44.2692 24.7109 44.108 25.0916C44.0649 25.1935 44.0217 25.2954 43.9785 25.3973L44.0726 25.46C44.0951 25.4342 44.1215 25.4094 44.148 25.3846C44.2059 25.3303 44.2639 25.276 44.2803 25.2118C44.34 24.9792 44.5 24.9781 44.6797 24.9769C44.6942 24.9768 44.7089 24.9766 44.7237 24.9764C44.9277 24.9733 45.095 24.9787 45.1637 25.2205C45.1881 25.3061 45.3198 25.4167 45.409 25.4225C45.7723 25.4463 46.1384 25.4384 46.5032 25.4307L46.5041 25.4306C46.5494 25.4297 46.5941 25.4031 46.6388 25.3765C46.6595 25.3642 46.6802 25.3519 46.7009 25.3421L46.6753 25.2442H45.821C45.9453 25.0274 46.0934 24.8363 46.24 24.6472C46.4295 24.4029 46.6164 24.1619 46.7457 23.8731H45.5389L45.5167 23.9593C45.635 24.0961 45.7995 24.0839 45.9694 24.0714C46.1056 24.0614 46.2453 24.051 46.3674 24.1171ZM44.47 24.7922L44.7176 24.1934L44.9652 24.7922H44.47Z" fill="#09090D"/>
<path d="M40.8896 23.884C40.8896 24.3452 40.8933 24.8064 40.8844 25.2674C40.8835 25.3194 40.8112 25.3701 40.7719 25.4214C40.7398 25.3665 40.6818 25.3124 40.6798 25.2565C40.6702 24.9795 40.6755 24.7019 40.6255 24.3997C40.4604 24.6638 40.2954 24.9278 40.0883 25.2592C39.8747 24.9317 39.7018 24.6666 39.5288 24.4014L39.4694 24.411C39.4694 24.7009 39.4738 24.9909 39.4651 25.2805C39.4637 25.3277 39.4043 25.3732 39.3717 25.4195C39.3397 25.3816 39.2803 25.344 39.2798 25.3058C39.2734 24.8281 39.2756 24.3504 39.3185 23.8551C39.7032 24.0962 39.7979 24.5361 40.0825 24.8536C40.3633 24.539 40.4545 24.0974 40.782 23.8281L40.8896 23.884Z" fill="#09090D"/>
<path d="M47.7949 24.2921C47.7949 24.6467 47.8008 24.9304 47.7908 25.2136C47.7884 25.2823 47.7341 25.3495 47.7038 25.4174C47.6681 25.3557 47.6028 25.2946 47.6016 25.2323C47.5927 24.7804 47.5968 24.3284 47.6356 23.8555C48.0637 24.1463 48.2794 24.6095 48.6824 25.0147C48.6824 24.6686 48.6761 24.3799 48.6866 24.0918C48.6894 24.0142 48.7433 23.9384 48.7738 23.8617C48.8095 23.9414 48.8743 24.0206 48.8762 24.1011C48.8864 24.5344 48.8811 24.9679 48.8338 25.4297C48.4087 25.1486 48.1922 24.6899 47.7949 24.2921Z" fill="#09090D"/>
<path d="M43.6984 24.9087C43.5744 24.8581 43.4772 24.8185 43.38 24.7789C43.3874 24.7532 43.3948 24.7275 43.4021 24.7018H43.8711C43.998 25.1454 43.9382 25.3245 43.6299 25.4117C43.1256 25.5543 42.6589 25.3707 42.5436 24.9558C42.4542 24.6341 42.4601 24.3079 42.7347 24.0505C42.9575 23.8416 43.3794 23.7827 43.678 23.9273C43.7521 23.9632 43.7935 24.0614 43.8501 24.131C43.7668 24.124 43.6763 24.1345 43.6012 24.1068C43.3092 23.999 43.0318 24.0406 42.8596 24.232C42.6871 24.4237 42.6574 24.7492 42.7952 24.9892C42.9368 25.2358 43.1669 25.2836 43.4359 25.2544C43.6638 25.2295 43.7687 25.131 43.6984 24.9087Z" fill="#09090D"/>
<path d="M49.2305 25.4311V23.8566C49.5267 23.8566 49.8114 23.8521 50.0956 23.861C50.1423 23.8625 50.187 23.9227 50.2326 23.9557C50.1868 23.9911 50.1426 24.0542 50.0947 24.057C49.8949 24.0685 49.6939 24.0619 49.4724 24.0619V24.4938C49.6384 24.6455 49.9692 24.4008 50.1506 24.7413H49.4705V25.2473C49.6688 25.2473 49.8755 25.2416 50.0815 25.2514C50.1327 25.2538 50.1813 25.3065 50.2312 25.3361C50.182 25.3677 50.1338 25.4252 50.0836 25.4268C49.8077 25.4358 49.5312 25.4311 49.2305 25.4311Z" fill="#09090D"/>
<path fill-rule="evenodd" clip-rule="evenodd" d="M42.3296 25.3894C42.3538 25.4084 42.378 25.4274 42.3987 25.4474L42.481 25.3678C42.4255 25.2364 42.3704 25.1049 42.3153 24.9733C42.1737 24.6351 42.032 24.297 41.8838 23.9616C41.8152 23.8064 41.6928 23.7942 41.6208 23.9561C41.47 24.2949 41.3273 24.637 41.1846 24.9791C41.1284 25.1137 41.0723 25.2483 41.0156 25.3827L41.0891 25.4483C41.1107 25.4295 41.1366 25.4117 41.1625 25.3939C41.2189 25.3551 41.2754 25.3162 41.2869 25.2675C41.35 25.0001 41.5226 24.967 41.772 24.9639C42.0141 24.9609 42.1394 25.0333 42.2077 25.2541C42.2238 25.3062 42.2767 25.3478 42.3296 25.3894ZM41.5061 24.7883L41.7511 24.1817L41.9994 24.7883H41.5061Z" fill="#09090D"/>
<path d="M47.2061 23.8878C47.2061 24.3581 47.2089 24.8284 47.2015 25.2985C47.2008 25.3422 47.1356 25.3847 47.1005 25.4279C47.063 25.3844 46.9938 25.3416 46.993 25.2975C46.9848 24.8627 46.9831 24.4277 46.9944 23.993C46.9957 23.9422 47.087 23.8935 47.1364 23.8438C47.1597 23.8584 47.1829 23.8731 47.2061 23.8878Z" fill="#09090D"/>
<mask id="mask2_1_591" style="mask-type:alpha" maskUnits="userSpaceOnUse" x="51" y="23" width="5" height="6">
<path fill-rule="evenodd" clip-rule="evenodd" d="M51.8691 23.4883H55.0691V28.0032H51.8691V23.4883Z" fill="white"/>
</mask>
<g mask="url(#mask2_1_591)">
<path d="M55.0691 23.4883L51.8691 25.536V28.0032L54.9667 26.0788" fill="#8A8A9A"/>
</g>
</svg>
