<svg width="20" height="20" viewBox="0 0 20 20" fill="none" xmlns="http://www.w3.org/2000/svg">
<g id=".DISCONTINUED / brand / twitter">
<path id="Vector" d="M16.6625 5.57336C17.4095 5.12677 17.9685 4.42356 18.235 3.59503C17.5331 4.01153 16.765 4.30493 15.9642 4.46253C14.8538 3.28797 13.0946 3.00214 11.6695 3.76474C10.2444 4.52735 9.50626 6.14961 9.86751 7.72503C6.99219 7.58068 4.31332 6.22246 2.49751 3.98836C1.54988 5.62288 2.03414 7.71235 3.60418 8.76336C3.03644 8.74511 2.48129 8.5914 1.98501 8.31503C1.98501 8.33003 1.98501 8.34503 1.98501 8.36003C1.98534 10.0627 3.18532 11.5293 4.85418 11.8667C4.32757 12.01 3.77519 12.0311 3.23918 11.9284C3.70851 13.3844 5.05047 14.3819 6.58001 14.4117C5.31321 15.406 3.74874 15.9452 2.13835 15.9425C1.85291 15.9429 1.56769 15.9265 1.28418 15.8934C2.9195 16.9442 4.82282 17.502 6.76668 17.5C9.47105 17.5186 12.07 16.4525 13.9823 14.54C15.8945 12.6276 16.9605 10.0286 16.9417 7.3242C16.9417 7.1692 16.9381 7.01503 16.9308 6.8617C17.6312 6.35553 18.2357 5.72849 18.7158 5.01003C18.0634 5.29925 17.3712 5.48913 16.6625 5.57336Z" fill="#8A8A9A"/>
</g>
</svg>
