<svg width="40" height="40" viewBox="0 0 40 40" fill="none" xmlns="http://www.w3.org/2000/svg">
<path d="M20 21.6667C22.7614 21.6667 25 19.4281 25 16.6667C25 13.9053 22.7614 11.6667 20 11.6667C17.2386 11.6667 15 13.9053 15 16.6667C15 19.4281 17.2386 21.6667 20 21.6667Z" stroke="#1424FF" stroke-width="2" stroke-linecap="round" stroke-linejoin="round"/>
<path d="M33.3333 5H6.66667C5.74619 5 5 5.74619 5 6.66667V33.3333C5 34.2538 5.74619 35 6.66667 35H33.3333C34.2538 35 35 34.2538 35 33.3333V6.66667C35 5.74619 34.2538 5 33.3333 5Z" stroke="#1424FF" stroke-width="2" stroke-linecap="round" stroke-linejoin="round"/>
<path d="M11.6666 35C11.6666 30.3976 15.3976 26.6667 20 26.6667C24.6023 26.6667 28.3333 30.3976 28.3333 35" stroke="#1424FF" stroke-width="2" stroke-linecap="round" stroke-linejoin="round"/>
</svg>
